PathFileType	4	(X/Y/Z)	E:\Qualisys_Data\Carbon_Farble_Plate\Data\Amateur_Runner\S1\T3\S1T3V11_c3d.trc
DataRate	CameraRate	NumFrames	NumMarkers	Units	OrigDataRate	OrigDataStartFrame	OrigNumFrames
200.000000	200.000000	4	39	mm	200.000000	272	311
Frame#	Time	LSHO			RSHO			LICST			RICST			LASIS			LHEEL			RASIS			LTROC			RTROC			SACR			LTH1			LSK4			LTH2			LTH3			RHM5			LSK2			LTH4			RTH1			LTOE			RTH2			RTH3			RTH4			LLEP			RLEP			LSK1			LSK3			RSK1			LHM5			RSK2			LFT1			RSK3			RSK4			LLME			RLME			RTOE			RHEEL			RFT1			RFT2			LFT2			
		X1	Y1	Z1	X2	Y2	Z2	X3	Y3	Z3	X4	Y4	Z4	X5	Y5	Z5	X6	Y6	Z6	X7	Y7	Z7	X8	Y8	Z8	X9	Y9	Z9	X10	Y10	Z10	X11	Y11	Z11	X12	Y12	Z12	X13	Y13	Z13	X14	Y14	Z14	X15	Y15	Z15	X16	Y16	Z16	X17	Y17	Z17	X18	Y18	Z18	X19	Y19	Z19	X20	Y20	Z20	X21	Y21	Z21	X22	Y22	Z22	X23	Y23	Z23	X24	Y24	Z24	X25	Y25	Z25	X26	Y26	Z26	X27	Y27	Z27	X28	Y28	Z28	X29	Y29	Z29	X30	Y30	Z30	X31	Y31	Z31	X32	Y32	Z32	X33	Y33	Z33	X34	Y34	Z34	X35	Y35	Z35	X36	Y36	Z36	X37	Y37	Z37	X38	Y38	Z38	X39	Y39	Z39	

273	1.36	1959.373168945312	1511.660034179688	-529.29248046875	1887.940307617188	1516.153198242188	-207.8834991455078	1893.521606445312	1049.878051757812	-503.3417053222656	1889.313232421875	1076.3291015625	-204.8108978271484	1938.088134765625	1011.32421875	-477.4791564941406	1446.742431640625	198.3417816162109	-402.7989501953125	1928.481567382812	1029.608642578125	-214.2816314697266	1815.238037109375	936.7925415039062	-516.0836181640625	1837.35400390625	934.89111328125	-176.9404449462891	1773.336547851562	1077.916870117188	-351.3814392089844	1909.808715820312	764.1752319335938	-491.2856140136719	1556.597900390625	327.4978942871094	-433.7643432617188	1831.12841796875	775.3885498046875	-520.4953002929688	1886.462036132812	664.08935546875	-471.8493041992188	2067.155029296875	136.6307830810547	-198.5777282714844	1617.717407226562	401.0700988769531	-473.726806640625	1805.826538085938	680.265869140625	-495.7958068847656	2010.890625	872.9185791015625	-209.4623107910156	1644.083862304688	53.54008102416992	-407.974853515625	1950.16650390625	830.2062377929688	-177.9713439941406	2067.501708984375	788.4346923828125	-213.6357879638672	2002.022583007812	745.3171997070312	-191.6891174316406	1795.5439453125	527.8056030273438	-458.0273132324219	2097.389404296875	608.0458374023438	-226.9966735839844	1682.233520507812	346.5401000976562	-463.4564514160156	1611.890625	273.6499328613281	-459.19482421875	2044.781494140625	423.1315002441406	-209.8700866699219	1573.740966796875	70.56037139892578	-468.6928405761719	1968.676635742188	447.7834777832031	-227.6474609375	1440.368896484375	171.0451965332031	-371.8542175292969	2018.003540039062	326.8420715332031	-223.2682495117188	1944.459716796875	352.2625427246094	-249.1092681884766	1514.471069335938	200.7879333496094	-450.0663757324219	1948.008666992188	213.1475372314453	-227.5642395019531	2129.804931640625	137.0594635009766	-265.0032043457031	1880.415405273438	176.8471374511719	-277.0122680664062	1890.077270507812	146.8524780273438	-303.7628173828125	1878.162719726562	153.1184844970703	-253.7409362792969	1432.738647460938	168.6476287841797	-422.4577941894531
274	1.365	1975.9052734375	1515.855712890625	-527.3876342773438	1902.703735351562	1519.402465820312	-206.7523651123047	1911.77490234375	1052.632080078125	-503.1878967285156	1906.015625	1079.073974609375	-204.8080444335938	1955.868896484375	1013.997497558594	-476.8939819335938	1456.68212890625	207.5877990722656	-403.29443359375	1945.805541992188	1033.144897460938	-213.8788757324219	1832.170654296875	940.09033203125	-515.5908813476562	1854.543701171875	938.262939453125	-176.5757446289062	1791.192749023438	1081.302490234375	-351.3729553222656	1924.016845703125	766.9238891601562	-491.3528747558594	1565.941772460938	332.7449951171875	-433.8011779785156	1845.749877929688	779.2687377929688	-520.5255737304688	1899.057250976562	666.9788208007812	-472.1464538574219	2101.976806640625	135.9701538085938	-198.293701171875	1627.130004882812	406.6195068359375	-473.6013793945312	1818.753295898438	684.5514526367188	-495.7768859863281	2027.561645507812	875.7020263671875	-208.5710296630859	1646.597290039062	53.08039474487305	-408.9308166503906	1966.379028320312	833.110107421875	-177.9351654052734	2083.572021484375	790.8394165039062	-213.3939208984375	2017.629638671875	747.8685913085938	-192.1575164794922	1806.002685546875	532.2181396484375	-458.2706909179688	2112.351318359375	610.210205078125	-226.9034881591797	1691.4833984375	351.9277038574219	-464.2471008300781	1620.66455078125	279.10986328125	-460.04931640625	2066.9111328125	422.0283508300781	-209.1034393310547	1577.4052734375	73.30292510986328	-468.9989318847656	1989.862670898438	443.6991882324219	-226.3306274414062	1448.986206054688	180.6854858398438	-372.7067260742188	2044.488037109375	324.9651184082031	-222.5328674316406	1969.813842773438	346.7796936035156	-247.8983459472656	1523.557006835938	206.7807006835938	-451.4506530761719	1979.89697265625	206.9690551757812	-226.8067932128906	2164.455810546875	139.2310791015625	-264.8188171386719	1913.384887695312	168.464111328125	-276.7778015136719	1924.913696289062	139.0587768554688	-304.587890625	1912.291381835938	144.8627319335938	-253.3519592285156	1441.1806640625	179.2940826416016	-423.2448120117188
275	1.37	1992.0634765625	1520.048095703125	-525.6704711914062	1917.625244140625	1522.417358398438	-205.7097320556641	1929.680541992188	1055.585571289062	-502.5098571777344	1924.747314453125	1082.881225585938	-204.1187744140625	1973.58349609375	1016.638793945312	-475.9791259765625	1467.508178710938	216.6403503417969	-403.3887939453125	1962.976318359375	1035.875244140625	-213.6083526611328	1849.551391601562	943.4384765625	-515.455322265625	1871.188110351562	941.6353149414062	-176.5606689453125	1808.9423828125	1084.515014648438	-351.5921020507812	1938.473266601562	769.4380493164062	-491.7197570800781	1575.7470703125	338.3302612304688	-434.0950012207031	1859.9609375	782.7977905273438	-520.2606811523438	1912.128173828125	670.21533203125	-472.6993713378906	2137.643310546875	135.5898284912109	-198.7746276855469	1636.84326171875	412.5621032714844	-473.55322265625	1831.7158203125	688.5365600585938	-495.7575378417969	2043.963134765625	877.8231811523438	-207.5978851318359	1649.5791015625	52.57388305664062	-409.49267578125	1982.086059570312	835.1138916015625	-178.1029205322266	2099.45703125	792.4845581054688	-212.9049530029297	2032.689086914062	749.843994140625	-192.8779296875	1816.651977539062	536.766845703125	-458.6508178710938	2126.978759765625	611.126953125	-226.4861907958984	1701.063110351562	357.3059692382812	-465.414306640625	1630.819946289062	284.0579833984375	-460.4867858886719	2089.245849609375	421.3558044433594	-207.7096252441406	1581.265625	76.16230773925781	-468.8251342773438	2010.933837890625	439.1155700683594	-225.2812652587891	1459.1943359375	190.8676300048828	-373.0299987792969	2071.091064453125	323.0777893066406	-222.4299774169922	1995.76708984375	341.7434387207031	-248.4324951171875	1533.523803710938	213.2879791259766	-452.624267578125	2011.56689453125	201.8000183105469	-226.7134552001953	2198.9072265625	141.7144622802734	-264.9576416015625	1946.648681640625	160.2446441650391	-277.1090393066406	1959.374755859375	132.3556060791016	-303.5586242675781	1946.453857421875	137.0925445556641	-253.2161560058594	1451.347412109375	189.1381378173828	-423.4947509765625
276	1.375	2008.381469726562	1524.026977539062	-523.6893920898438	1932.800415039062	1525.346923828125	-204.8798522949219	1947.540893554688	1058.440185546875	-502.2746887207031	1941.415649414062	1084.968872070312	-204.0297241210938	1991.317260742188	1019.228698730469	-475.6813659667969	1481.794677734375	227.1555786132812	-403.3094177246094	1980.172607421875	1038.745483398438	-213.1805267333984	1866.63623046875	946.7575073242188	-515.0176391601562	1887.851928710938	944.186279296875	-176.4828491210938	1826.706787109375	1087.452270507812	-351.5212707519531	1952.917602539062	771.8763427734375	-491.9424743652344	1585.8701171875	343.621337890625	-433.8170471191406	1874.4208984375	786.7242431640625	-520.7718505859375	1925.266845703125	673.3530883789062	-473.4991149902344	2171.970458984375	136.140380859375	-199.3093109130859	1647.334228515625	417.6143798828125	-473.5467224121094	1844.954833984375	692.5682983398438	-495.9271850585938	2060.422119140625	879.5121459960938	-206.5845336914062	1652.884765625	52.21001434326172	-409.7658081054688	1997.942626953125	837.14990234375	-178.4811248779297	2115.220458984375	793.4677124023438	-211.9024658203125	2047.68408203125	751.5756225585938	-193.5995483398438	1828.179077148438	541.3720703125	-459.0625305175781	2140.838623046875	612.490966796875	-226.2146148681641	1711.13623046875	362.3793029785156	-466.7528991699219	1640.903076171875	289.4204406738281	-461.1974487304688	2110.819091796875	420.2877197265625	-206.9045257568359	1585.63037109375	79.96366119384766	-469.0138854980469	2031.9658203125	434.7548828125	-224.0688781738281	1470.357421875	201.4828033447266	-373.19873046875	2096.77783203125	320.8600769042969	-221.9239349365234	2020.861694335938	336.7425842285156	-247.6630859375	1545.078125	218.2486114501953	-452.0790710449219	2043.248046875	196.9777069091797	-226.0350646972656	2232.814208984375	144.8433685302734	-264.8843994140625	1979.675048828125	153.1289672851562	-276.9080200195312	1996.2666015625	126.9279098510742	-303.1456604003906	1981.208862304688	129.4321746826172	-253.1050720214844	1461.980102539062	199.918701171875	-423.8679504394531
